<mxfile modified="2022-10-18T04:46:25.678Z" host="app.diagrams.net" agent="5.0 (iPad; CPU OS 15_7 like Mac OS X) AppleWebKit/605.1.15 (KHTML, like Gecko) CriOS/106.0.5249.92 Mobile/15E148 Safari/604.1" etag="UDOYv4VUjnsOao4nE3Y2" version="20.4.1" type="github">
  <diagram id="WI9T0HZ2pTsCkuznbFz-" name="Page-1">
    <mxGraphModel dx="819" dy="635" grid="1" gridSize="10" guides="1" tooltips="1" connect="1" arrows="1" fold="1" page="1" pageScale="1" pageWidth="1169" pageHeight="827" background="none" math="0" shadow="0">
      <root>
        <mxCell id="0" />
        <mxCell id="1" parent="0" />
        <mxCell id="tRfXf_HET7eCn52Q2gwx-11" style="edgeStyle=orthogonalEdgeStyle;rounded=0;orthogonalLoop=1;jettySize=auto;html=1;entryX=0;entryY=0.531;entryDx=0;entryDy=0;entryPerimeter=0;" edge="1" parent="1" source="tRfXf_HET7eCn52Q2gwx-1" target="tRfXf_HET7eCn52Q2gwx-7">
          <mxGeometry relative="1" as="geometry">
            <mxPoint x="210" y="380" as="targetPoint" />
            <Array as="points">
              <mxPoint x="225" y="390" />
              <mxPoint x="225" y="264" />
            </Array>
          </mxGeometry>
        </mxCell>
        <mxCell id="tRfXf_HET7eCn52Q2gwx-12" style="edgeStyle=orthogonalEdgeStyle;rounded=0;orthogonalLoop=1;jettySize=auto;html=1;entryX=0;entryY=0.625;entryDx=0;entryDy=0;entryPerimeter=0;" edge="1" parent="1" source="tRfXf_HET7eCn52Q2gwx-1" target="tRfXf_HET7eCn52Q2gwx-8">
          <mxGeometry relative="1" as="geometry" />
        </mxCell>
        <mxCell id="tRfXf_HET7eCn52Q2gwx-1" value="" style="aspect=fixed;html=1;points=[];align=center;image;fontSize=12;image=img/lib/azure2/compute/VM_Images_Classic.svg;" vertex="1" parent="1">
          <mxGeometry x="70" y="374" width="80" height="74.2" as="geometry" />
        </mxCell>
        <mxCell id="tRfXf_HET7eCn52Q2gwx-2" value="Ubuntu server" style="text;html=1;resizable=0;autosize=1;align=center;verticalAlign=middle;points=[];rounded=0;fontStyle=1;labelBackgroundColor=default;" vertex="1" parent="1">
          <mxGeometry x="63.129999999999995" y="450" width="100" height="30" as="geometry" />
        </mxCell>
        <mxCell id="tRfXf_HET7eCn52Q2gwx-4" value="Puppet Server" style="text;html=1;resizable=0;autosize=1;align=center;verticalAlign=middle;points=[];fillColor=none;strokeColor=none;rounded=0;labelBackgroundColor=default;" vertex="1" parent="1">
          <mxGeometry x="63.129999999999995" y="340" width="100" height="30" as="geometry" />
        </mxCell>
        <mxCell id="tRfXf_HET7eCn52Q2gwx-15" style="edgeStyle=orthogonalEdgeStyle;rounded=0;orthogonalLoop=1;jettySize=auto;html=1;entryX=0;entryY=0.569;entryDx=0;entryDy=0;entryPerimeter=0;" edge="1" parent="1" source="tRfXf_HET7eCn52Q2gwx-7" target="tRfXf_HET7eCn52Q2gwx-13">
          <mxGeometry relative="1" as="geometry">
            <mxPoint x="600" y="267.0999999999999" as="targetPoint" />
          </mxGeometry>
        </mxCell>
        <mxCell id="tRfXf_HET7eCn52Q2gwx-7" value="" style="aspect=fixed;html=1;points=[];align=center;image;fontSize=12;image=img/lib/azure2/compute/VM_Images_Classic.svg;labelBackgroundColor=default;" vertex="1" parent="1">
          <mxGeometry x="310" y="230" width="80" height="74.2" as="geometry" />
        </mxCell>
        <mxCell id="tRfXf_HET7eCn52Q2gwx-16" style="edgeStyle=orthogonalEdgeStyle;rounded=0;orthogonalLoop=1;jettySize=auto;html=1;entryX=0;entryY=0.568;entryDx=0;entryDy=0;entryPerimeter=0;" edge="1" parent="1" source="tRfXf_HET7eCn52Q2gwx-8" target="tRfXf_HET7eCn52Q2gwx-14">
          <mxGeometry relative="1" as="geometry" />
        </mxCell>
        <mxCell id="tRfXf_HET7eCn52Q2gwx-8" value="" style="aspect=fixed;html=1;points=[];align=center;image;fontSize=12;image=img/lib/azure2/compute/VM_Images_Classic.svg;labelBackgroundColor=default;" vertex="1" parent="1">
          <mxGeometry x="310" y="480" width="69" height="64" as="geometry" />
        </mxCell>
        <mxCell id="tRfXf_HET7eCn52Q2gwx-9" value="Compiler&amp;nbsp;" style="text;html=1;resizable=0;autosize=1;align=center;verticalAlign=middle;points=[];fillColor=none;strokeColor=none;rounded=0;labelBackgroundColor=default;" vertex="1" parent="1">
          <mxGeometry x="320" y="320" width="70" height="30" as="geometry" />
        </mxCell>
        <mxCell id="tRfXf_HET7eCn52Q2gwx-10" value="Compiler&amp;nbsp;" style="text;html=1;resizable=0;autosize=1;align=center;verticalAlign=middle;points=[];fillColor=none;strokeColor=none;rounded=0;labelBackgroundColor=default;" vertex="1" parent="1">
          <mxGeometry x="309" y="550" width="70" height="30" as="geometry" />
        </mxCell>
        <mxCell id="tRfXf_HET7eCn52Q2gwx-13" value="" style="aspect=fixed;html=1;points=[];align=center;image;fontSize=12;image=img/lib/azure2/compute/VM_Scale_Sets.svg;labelBackgroundColor=default;" vertex="1" parent="1">
          <mxGeometry x="620" y="225" width="74" height="74" as="geometry" />
        </mxCell>
        <mxCell id="tRfXf_HET7eCn52Q2gwx-14" value="" style="aspect=fixed;html=1;points=[];align=center;image;fontSize=12;image=img/lib/azure2/compute/VM_Scale_Sets.svg;labelBackgroundColor=default;" vertex="1" parent="1">
          <mxGeometry x="620" y="470" width="74" height="74" as="geometry" />
        </mxCell>
        <mxCell id="tRfXf_HET7eCn52Q2gwx-21" value="Linux Nodes&lt;br&gt;" style="text;html=1;resizable=0;autosize=1;align=center;verticalAlign=middle;points=[];fillColor=none;strokeColor=none;rounded=0;labelBackgroundColor=default;" vertex="1" parent="1">
          <mxGeometry x="620" y="310" width="90" height="30" as="geometry" />
        </mxCell>
        <mxCell id="tRfXf_HET7eCn52Q2gwx-24" value="Linux Nodes&lt;br&gt;" style="text;html=1;resizable=0;autosize=1;align=center;verticalAlign=middle;points=[];fillColor=none;strokeColor=none;rounded=0;labelBackgroundColor=default;" vertex="1" parent="1">
          <mxGeometry x="620" y="550" width="90" height="30" as="geometry" />
        </mxCell>
      </root>
    </mxGraphModel>
  </diagram>
</mxfile>
